<?xml version="1.0" encoding="UTF-8" standalone="no"?>
<!DOCTYPE svg PUBLIC "-//W3C//DTD SVG 1.1//EN" "http://www.w3.org/Graphics/SVG/1.1/DTD/svg11.dtd">
<svg width="100%" height="100%" viewBox="0 0 4961 1182" version="1.1" xmlns="http://www.w3.org/2000/svg" xmlns:xlink="http://www.w3.org/1999/xlink" xml:space="preserve" xmlns:serif="http://www.serif.com/" style="fill-rule:evenodd;clip-rule:evenodd;stroke-linejoin:round;stroke-miterlimit:2;">
    <g transform="matrix(1.27506,0,0,1.27506,-217.511,-247.088)">
        <g transform="matrix(700.092,0,0,700.092,255.767,808.877)">
            <path d="M0.111,-0.641L0.275,-0.641L0.395,-0.257L0.515,-0.641L0.674,-0.641L0.756,-0L0.624,-0L0.568,-0.451L0.427,-0L0.364,-0L0.219,-0.455L0.166,-0L0.032,-0L0.111,-0.641Z" style="fill:rgb(0,75,131);fill-rule:nonzero;"/>
        </g>
        <g transform="matrix(700.092,0,0,700.092,810.235,808.877)">
            <path d="M0.425,-0.583L0.339,-0.489C0.294,-0.515 0.261,-0.529 0.241,-0.529C0.226,-0.529 0.213,-0.523 0.202,-0.511C0.191,-0.5 0.185,-0.486 0.185,-0.47C0.185,-0.439 0.214,-0.411 0.271,-0.388C0.313,-0.37 0.345,-0.354 0.366,-0.339C0.388,-0.325 0.406,-0.305 0.42,-0.279C0.435,-0.254 0.442,-0.226 0.442,-0.196C0.442,-0.141 0.42,-0.093 0.375,-0.052C0.331,-0.012 0.278,0.009 0.218,0.009C0.151,0.009 0.086,-0.022 0.021,-0.085L0.112,-0.191C0.153,-0.149 0.191,-0.128 0.226,-0.128C0.243,-0.128 0.259,-0.135 0.274,-0.15C0.289,-0.165 0.297,-0.181 0.297,-0.197C0.297,-0.23 0.262,-0.26 0.191,-0.285C0.151,-0.3 0.122,-0.313 0.105,-0.326C0.088,-0.339 0.074,-0.358 0.062,-0.382C0.051,-0.407 0.045,-0.432 0.045,-0.458C0.045,-0.515 0.063,-0.561 0.101,-0.597C0.138,-0.632 0.186,-0.65 0.246,-0.65C0.317,-0.65 0.377,-0.628 0.425,-0.583Z" style="fill:rgb(0,75,131);fill-rule:nonzero;"/>
        </g>
        <g transform="matrix(700.092,0,0,700.092,1143.53,808.877)">
            <path d="M0.287,-0.641L0.394,-0.641L0.656,-0L0.517,-0L0.465,-0.126L0.219,-0.126L0.169,-0L0.031,-0L0.287,-0.641ZM0.341,-0.431L0.266,-0.242L0.418,-0.242L0.341,-0.431Z" style="fill:rgb(0,75,131);fill-rule:nonzero;"/>
        </g>
        <g transform="matrix(700.092,0,0,700.092,1625.18,808.877)">
            <path d="M0.459,-0.185L0.115,-0.185C0.123,-0.144 0.14,-0.113 0.166,-0.094C0.193,-0.075 0.222,-0.066 0.253,-0.066C0.301,-0.066 0.341,-0.086 0.374,-0.126L0.436,-0.079C0.389,-0.019 0.327,0.011 0.249,0.011C0.189,0.011 0.139,-0.009 0.099,-0.05C0.058,-0.091 0.038,-0.142 0.038,-0.203C0.038,-0.26 0.058,-0.309 0.099,-0.351C0.14,-0.393 0.19,-0.414 0.249,-0.414C0.307,-0.414 0.357,-0.393 0.398,-0.35C0.439,-0.308 0.46,-0.253 0.459,-0.185ZM0.124,-0.253L0.37,-0.253C0.343,-0.308 0.302,-0.336 0.249,-0.336C0.191,-0.336 0.149,-0.308 0.124,-0.253Z" style="fill:rgb(0,134,193);fill-rule:nonzero;"/>
        </g>
        <g transform="matrix(700.092,0,0,700.092,1954.38,808.877)">
            <path d="M0.057,-0.403L0.16,-0.403L0.25,-0.288L0.338,-0.403L0.44,-0.403L0.3,-0.221L0.469,-0L0.368,-0L0.249,-0.154L0.129,-0L0.029,-0L0.199,-0.221L0.057,-0.403Z" style="fill:rgb(0,134,193);fill-rule:nonzero;"/>
        </g>
        <g transform="matrix(700.092,0,0,700.092,2304.42,808.877)">
            <path d="M0.152,-0.403L0.152,-0.322C0.193,-0.383 0.245,-0.414 0.308,-0.414C0.36,-0.414 0.405,-0.393 0.442,-0.352C0.48,-0.31 0.499,-0.261 0.499,-0.203C0.499,-0.145 0.48,-0.095 0.442,-0.052C0.404,-0.01 0.359,0.011 0.307,0.011C0.277,0.011 0.248,0.003 0.221,-0.012C0.193,-0.028 0.171,-0.05 0.153,-0.08L0.153,0.189L0.068,0.189L0.068,-0.403L0.152,-0.403ZM0.41,-0.203C0.41,-0.239 0.397,-0.27 0.37,-0.296C0.343,-0.323 0.312,-0.336 0.276,-0.336C0.239,-0.336 0.207,-0.323 0.18,-0.296C0.153,-0.27 0.14,-0.239 0.14,-0.203C0.14,-0.166 0.153,-0.134 0.18,-0.107C0.206,-0.08 0.238,-0.067 0.274,-0.067C0.311,-0.067 0.343,-0.08 0.37,-0.107C0.397,-0.134 0.41,-0.166 0.41,-0.203Z" style="fill:rgb(0,134,193);fill-rule:nonzero;"/>
        </g>
        <g transform="matrix(700.092,0,0,700.092,2690.71,808.877)">
            <rect x="0.069" y="-0.634" width="0.085" height="0.634" style="fill:rgb(0,134,193);fill-rule:nonzero;"/>
        </g>
        <g transform="matrix(700.092,0,0,700.092,2844.19,808.877)">
            <path d="M0.034,-0.203C0.034,-0.258 0.056,-0.307 0.099,-0.35C0.143,-0.393 0.193,-0.414 0.249,-0.414C0.307,-0.414 0.358,-0.393 0.401,-0.351C0.444,-0.309 0.466,-0.259 0.466,-0.203C0.466,-0.146 0.444,-0.097 0.402,-0.053C0.36,-0.01 0.311,0.011 0.255,0.011C0.195,0.011 0.144,-0.01 0.1,-0.053C0.056,-0.095 0.034,-0.146 0.034,-0.203ZM0.384,-0.203C0.384,-0.237 0.371,-0.267 0.345,-0.292C0.319,-0.317 0.288,-0.33 0.252,-0.33C0.215,-0.33 0.183,-0.317 0.157,-0.292C0.13,-0.266 0.117,-0.236 0.117,-0.2C0.117,-0.166 0.131,-0.137 0.157,-0.111C0.184,-0.086 0.216,-0.073 0.252,-0.073C0.287,-0.073 0.318,-0.086 0.344,-0.112C0.371,-0.138 0.384,-0.169 0.384,-0.203Z" style="fill:rgb(0,134,193);fill-rule:nonzero;"/>
        </g>
        <g transform="matrix(700.092,0,0,700.092,3194.24,808.877)">
            <path d="M0.151,-0.403L0.151,-0.32C0.17,-0.353 0.188,-0.377 0.206,-0.392C0.224,-0.407 0.248,-0.414 0.277,-0.414C0.285,-0.414 0.297,-0.412 0.312,-0.408L0.286,-0.323C0.27,-0.326 0.259,-0.328 0.254,-0.328C0.225,-0.328 0.201,-0.318 0.182,-0.298C0.162,-0.278 0.153,-0.253 0.153,-0.223L0.153,-0L0.068,-0L0.068,-0.403L0.151,-0.403Z" style="fill:rgb(0,134,193);fill-rule:nonzero;"/>
        </g>
        <g transform="matrix(700.092,0,0,700.092,3427.37,808.877)">
            <path d="M0.459,-0.185L0.115,-0.185C0.123,-0.144 0.14,-0.113 0.166,-0.094C0.193,-0.075 0.222,-0.066 0.253,-0.066C0.301,-0.066 0.341,-0.086 0.374,-0.126L0.436,-0.079C0.389,-0.019 0.327,0.011 0.249,0.011C0.189,0.011 0.139,-0.009 0.099,-0.05C0.058,-0.091 0.038,-0.142 0.038,-0.203C0.038,-0.26 0.058,-0.309 0.099,-0.351C0.14,-0.393 0.19,-0.414 0.249,-0.414C0.307,-0.414 0.357,-0.393 0.398,-0.35C0.439,-0.308 0.46,-0.253 0.459,-0.185ZM0.124,-0.253L0.37,-0.253C0.343,-0.308 0.302,-0.336 0.249,-0.336C0.191,-0.336 0.149,-0.308 0.124,-0.253Z" style="fill:rgb(0,134,193);fill-rule:nonzero;"/>
        </g>
        <g transform="matrix(700.092,0,0,700.092,3777.42,808.877)">
            <path d="M0.151,-0.403L0.151,-0.32C0.17,-0.353 0.188,-0.377 0.206,-0.392C0.224,-0.407 0.248,-0.414 0.277,-0.414C0.285,-0.414 0.297,-0.412 0.312,-0.408L0.286,-0.323C0.27,-0.326 0.259,-0.328 0.254,-0.328C0.225,-0.328 0.201,-0.318 0.182,-0.298C0.162,-0.278 0.153,-0.253 0.153,-0.223L0.153,-0L0.068,-0L0.068,-0.403L0.151,-0.403Z" style="fill:rgb(0,134,193);fill-rule:nonzero;"/>
        </g>
    </g>
    <g transform="matrix(1.27506,0,0,1.27506,-686.738,-189.827)">
        <ellipse cx="3399.27" cy="613.249" rx="181.273" ry="179.323" style="fill:rgb(0,134,193);stroke:rgb(0,75,131);stroke-width:15.72px;stroke-linecap:round;stroke-miterlimit:1.5;"/>
    </g>
    <g transform="matrix(1.10846,0,0,1.09766,-119.349,-77.679)">
        <ellipse cx="3399.27" cy="613.249" rx="181.273" ry="179.323" style="fill:white;stroke:rgb(0,134,193);stroke-width:1.21px;stroke-linecap:round;stroke-miterlimit:1.5;"/>
    </g>
    <g transform="matrix(0.753099,0.631553,-0.468179,0.558282,3364.46,329.202)">
        <path d="M432.071,975.002L336.265,975.002L360.216,360.251L408.119,360.251L432.071,975.002Z" style="fill:rgb(0,134,193);stroke:rgb(0,75,131);stroke-width:23.17px;stroke-linecap:round;stroke-miterlimit:1.5;"/>
    </g>
    <g transform="matrix(-1.10246,-0.963912,0.077481,-0.0886174,3842.63,1218.51)">
        <path d="M432.071,975.002L336.265,975.002L360.216,360.251L408.119,360.251L432.071,975.002Z" style="fill:rgb(0,75,131);"/>
    </g>
</svg>
